<svg id="Layer_1" data-name="Layer 1" xmlns="http://www.w3.org/2000/svg" viewBox="0 0 160 40"><defs><style>.cls-1{fill:#fff;}</style></defs><title>Artboard 1</title><path class="cls-1" d="M20.48,27.29H17.42a1.3,1.3,0,0,1-1.22-.64l-2.42-4.23a1,1,0,0,0-1-.52h-.86v5.39H8.56V12.71H13.3A9.73,9.73,0,0,1,16,13a5.06,5.06,0,0,1,1.82.91,3.43,3.43,0,0,1,1,1.37A4.54,4.54,0,0,1,19.16,17,4.6,4.6,0,0,1,19,18.38a4.13,4.13,0,0,1-.56,1.17,4.28,4.28,0,0,1-.91,1,4.87,4.87,0,0,1-1.26.69,3.06,3.06,0,0,1,.62.43,3,3,0,0,1,.52.6ZM13.3,19.56a3.47,3.47,0,0,0,1.18-.17,2.13,2.13,0,0,0,.79-.48,1.85,1.85,0,0,0,.45-.73,2.78,2.78,0,0,0,.14-.89,1.88,1.88,0,0,0-.62-1.5,2.91,2.91,0,0,0-1.94-.54H11.94v4.32Z"/><path class="cls-1" d="M36.78,27.29H34.16a1.14,1.14,0,0,1-.71-.21,1.3,1.3,0,0,1-.41-.53L32.18,24H26.64l-.86,2.54a1.21,1.21,0,0,1-.4.51,1.11,1.11,0,0,1-.71.22H22l5.64-14.57h3.46Zm-5.37-5.57-1.35-4q-.15-.38-.32-.89t-.34-1.12q-.15.61-.32,1.13t-.32.9l-1.34,4Z"/><path class="cls-1" d="M43.33,15.31V19h5v2.61h-5v5.67h-3.4V12.71h9.38v2.6Z"/><path class="cls-1" d="M67.43,20a7.83,7.83,0,0,1-.54,2.94A7,7,0,0,1,63,26.88a8.7,8.7,0,0,1-6.2,0,7,7,0,0,1-3.93-3.94,8.2,8.2,0,0,1,0-5.88,7,7,0,0,1,1.54-2.36,7.12,7.12,0,0,1,2.4-1.57,8.15,8.15,0,0,1,3.1-.57,8.06,8.06,0,0,1,3.1.58,7.14,7.14,0,0,1,2.38,1.58,7,7,0,0,1,1.54,2.36A7.81,7.81,0,0,1,67.43,20ZM64,20A6.31,6.31,0,0,0,63.69,18a4.13,4.13,0,0,0-.81-1.46,3.46,3.46,0,0,0-1.29-.92,4.41,4.41,0,0,0-1.73-.32,4.48,4.48,0,0,0-1.75.32,3.45,3.45,0,0,0-1.29.92A4.12,4.12,0,0,0,56,18,6.93,6.93,0,0,0,56,22a4.12,4.12,0,0,0,.81,1.46,3.42,3.42,0,0,0,1.29.92,4.55,4.55,0,0,0,1.75.32,4.49,4.49,0,0,0,1.73-.32,3.43,3.43,0,0,0,1.29-.92A4.13,4.13,0,0,0,63.69,22,6.34,6.34,0,0,0,64,20Z"/><path class="cls-1" d="M84.31,20.1A8,8,0,0,1,83.79,23a6.41,6.41,0,0,1-3.71,3.73,7.83,7.83,0,0,1-2.91.52h-5.4V12.92h5.4a7.83,7.83,0,0,1,2.91.52,6.4,6.4,0,0,1,3.71,3.73A8,8,0,0,1,84.31,20.1Zm-2.18,0a7,7,0,0,0-.35-2.29,4.86,4.86,0,0,0-1-1.72A4.24,4.24,0,0,0,79.22,15a5.42,5.42,0,0,0-2-.37H73.92V25.57h3.26a5.42,5.42,0,0,0,2-.37,4.24,4.24,0,0,0,1.56-1.08,4.86,4.86,0,0,0,1-1.71A7,7,0,0,0,82.13,20.1Z"/><path class="cls-1" d="M97.9,25.55v1.73H89V12.92h8.9v1.73H91.13v4.55h5.44v1.67H91.13v4.68Z"/><path class="cls-1" d="M110,15.26a.81.81,0,0,1-.21.25.46.46,0,0,1-.28.08.73.73,0,0,1-.41-.17c-.15-.11-.34-.23-.57-.37a4.56,4.56,0,0,0-.83-.37,3.57,3.57,0,0,0-1.15-.16,3.38,3.38,0,0,0-1.1.16,2.33,2.33,0,0,0-.79.45,1.89,1.89,0,0,0-.49.67,2.09,2.09,0,0,0-.17.83,1.51,1.51,0,0,0,.29,1,2.52,2.52,0,0,0,.78.65,6,6,0,0,0,1.09.47l1.25.42a12.89,12.89,0,0,1,1.25.5,4.42,4.42,0,0,1,1.09.71,3.25,3.25,0,0,1,.78,1,3.48,3.48,0,0,1,.29,1.5,4.84,4.84,0,0,1-.33,1.78,4.17,4.17,0,0,1-.94,1.45,4.39,4.39,0,0,1-1.52,1,5.58,5.58,0,0,1-2.06.36,6.59,6.59,0,0,1-2.57-.52,6.15,6.15,0,0,1-1.09-.59,5.34,5.34,0,0,1-.9-.77l.61-1a.84.84,0,0,1,.21-.2.52.52,0,0,1,.29-.08.82.82,0,0,1,.49.22c.18.15.41.31.68.48a5.27,5.27,0,0,0,1,.49,3.81,3.81,0,0,0,1.38.22,3.68,3.68,0,0,0,1.18-.17A2.41,2.41,0,0,0,108,25a2.18,2.18,0,0,0,.54-.79,2.66,2.66,0,0,0,.19-1,1.71,1.71,0,0,0-.29-1,2.36,2.36,0,0,0-.77-.67,5.63,5.63,0,0,0-1.09-.46l-1.25-.4a12.57,12.57,0,0,1-1.25-.47,4.06,4.06,0,0,1-1.09-.71,3.19,3.19,0,0,1-.77-1.09,4,4,0,0,1-.29-1.62,3.82,3.82,0,0,1,.3-1.49,3.76,3.76,0,0,1,.88-1.27,4.3,4.3,0,0,1,1.41-.89,5.17,5.17,0,0,1,1.92-.33,6.23,6.23,0,0,1,2.23.39,5.15,5.15,0,0,1,1.76,1.1Z"/><path class="cls-1" d="M117.55,27.29h-2.14V12.92h2.14Z"/><path class="cls-1" d="M134.81,20.29v5.6a8.17,8.17,0,0,1-2.32,1.17,9,9,0,0,1-2.68.38,8.69,8.69,0,0,1-3.14-.54,6.91,6.91,0,0,1-2.4-1.51,6.62,6.62,0,0,1-1.53-2.32,8,8,0,0,1-.53-3,8.35,8.35,0,0,1,.51-3,6.55,6.55,0,0,1,1.48-2.32,6.65,6.65,0,0,1,2.33-1.5,8.34,8.34,0,0,1,3.06-.54,9.25,9.25,0,0,1,1.6.13,7.5,7.5,0,0,1,1.37.37,6.59,6.59,0,0,1,1.16.58,6.88,6.88,0,0,1,1,.75l-.61,1a.61.61,0,0,1-.37.29.63.63,0,0,1-.5-.11l-.57-.35a4.47,4.47,0,0,0-.75-.37,6.38,6.38,0,0,0-1-.29,6.83,6.83,0,0,0-1.37-.12,5.62,5.62,0,0,0-2.13.39,4.48,4.48,0,0,0-1.62,1.1,4.94,4.94,0,0,0-1,1.74,6.77,6.77,0,0,0-.36,2.27,6.9,6.9,0,0,0,.38,2.37,5,5,0,0,0,1.08,1.77,4.54,4.54,0,0,0,1.69,1.1,6.19,6.19,0,0,0,2.22.38,6.77,6.77,0,0,0,.9-.06,6.47,6.47,0,0,0,.79-.15,5.65,5.65,0,0,0,.73-.25c.24-.1.47-.21.71-.33v-3h-2.12a.45.45,0,0,1-.33-.12.4.4,0,0,1-.12-.3V20.29Z"/><path class="cls-1" d="M151.44,12.92V27.29h-1.08a.86.86,0,0,1-.42-.09,1.24,1.24,0,0,1-.33-.29L141.5,16.42q0,.27,0,.53c0,.17,0,.34,0,.49v9.85h-1.87V12.92h1.1a1,1,0,0,1,.42.07.92.92,0,0,1,.31.29l8.13,10.5c0-.19,0-.38,0-.57s0-.35,0-.51V12.92Z"/></svg>